<svg width="213" height="395" viewBox="0 0 213 395" fill="none" xmlns="http://www.w3.org/2000/svg">
<path d="M-61.0384 141.704C-62.6994 139.471 -64.218 137.132 -65.4205 134.611L-64.4675 136.599C-65.4172 134.559 -66.1411 132.446 -66.5583 130.232L-66.1777 132.333C-66.4972 130.515 -66.5886 128.685 -66.4663 126.839L-66.6253 128.933C-66.4572 126.795 -65.9867 124.721 -65.2913 122.687L-65.9833 124.669C-64.9073 121.639 -63.3713 118.818 -61.5738 116.149L-62.7634 117.923C-62.0183 116.838 -61.2417 115.783 -60.4307 114.742L-62.0994 116.182C-59.3303 113.972 -56.387 111.97 -53.1878 110.436L-55.1757 111.389C-53.0605 110.402 -50.8692 109.627 -48.5826 109.187L-50.684 109.568C-48.9353 109.257 -47.1825 109.142 -45.4114 109.263L-47.5054 109.104C-45.7461 109.246 -44.0348 109.618 -42.3744 110.198L-44.3571 109.506C-42.3573 110.224 -40.481 111.21 -38.7044 112.385L-40.478 111.195C-37.2494 113.372 -34.4292 116.066 -31.8183 118.934L-33.2589 117.265C-31.3463 119.769 -29.6165 122.392 -28.258 125.247L-29.211 123.259C-28.2925 125.232 -27.5767 127.275 -27.182 129.417L-27.5626 127.316C-27.329 128.718 -27.2399 130.127 -27.3326 131.543L-27.1736 129.449C-27.2864 130.854 -27.5721 132.222 -28.0307 133.555L-27.3386 131.572C-27.8497 132.976 -28.5217 134.287 -29.3461 135.535L-28.1565 133.761C-29.2554 135.389 -30.5493 136.87 -32.0235 138.171L-30.3547 136.73C-32.5552 138.593 -35.0409 140.059 -37.6259 141.316L-35.638 140.363C-36.0958 140.575 -36.5623 140.793 -37.0201 141.006C-39.503 142.134 -41.2923 143.504 -42.2065 146.155C-43.0436 148.58 -42.8112 151.14 -41.3807 153.325L-31.8235 167.925C-29.4699 171.521 -24.0527 172.9 -20.4578 170.298C-16.8629 167.696 -15.5661 162.78 -18.085 158.932L-27.6422 144.332C-29.0939 148.441 -30.5455 152.55 -32.0029 156.651C-25.7682 153.826 -19.7995 150.366 -15.826 144.619C-12.6442 139.999 -10.7981 134.972 -10.8918 129.3C-10.9855 123.628 -13.3128 117.926 -16.2416 113.053C-19.0138 108.438 -22.6822 104.334 -26.8557 100.923C-30.7597 97.7324 -34.9421 95.371 -39.755 93.8701C-44.568 92.3693 -49.8342 92.6078 -54.7446 93.77C-60.057 95.0212 -65.1289 97.8935 -69.4681 101.144C-71.2572 102.477 -72.8389 103.861 -74.1557 105.668C-75.3879 107.357 -76.5627 109.096 -77.6427 110.885C-79.3111 113.656 -80.5219 116.576 -81.5319 119.65C-83.3948 125.296 -83.3709 131.375 -81.8518 137.096C-80.5426 142.022 -77.8628 146.648 -74.8406 150.714C-72.2806 154.15 -67.2264 155.791 -63.4748 153.087C-60.034 150.611 -58.3537 145.407 -61.1021 141.721L-61.0384 141.704Z" fill="#768E8B" fill-opacity="0.3"/>
<path d="M-16.6145 172.085C-16.4748 171.956 -16.3439 171.833 -16.2043 171.705L-17.8731 173.145C-16.4601 171.922 -14.8159 170.995 -13.1294 170.189L-15.1173 171.142C-9.74202 168.581 -3.84193 167.107 1.9524 165.851C4.03133 165.398 6.12434 164.986 8.22575 164.605L6.12434 164.986C14.952 163.386 23.8593 162.269 32.7878 161.375C42.9844 160.346 53.216 159.619 63.4518 159.087C74.0456 158.533 84.6549 158.192 95.257 158.03C105.293 157.878 115.325 157.89 125.361 158.098C133.848 158.277 142.336 158.59 150.805 159.178C151.731 159.244 152.657 159.309 153.574 159.381L151.48 159.221C157.419 159.687 163.441 160.185 169.262 161.498C170.268 161.723 171.267 161.977 172.248 162.317L170.266 161.625C170.769 161.805 171.27 162 171.75 162.258L170.917 148.028L139.226 168.772C135.63 171.126 134.251 176.543 136.853 180.138C139.455 183.733 144.371 185.03 148.219 182.511C157.691 176.31 167.173 170.104 176.645 163.904L180.615 161.305C184.333 158.872 185.421 153.657 182.988 149.939L165.811 123.699C163.457 120.103 158.04 118.724 154.445 121.326C150.85 123.928 149.554 128.843 152.073 132.692L169.249 158.932L171.622 147.567L139.226 168.772C135.63 171.126 134.251 176.543 136.853 180.138C139.455 183.733 144.371 185.03 148.219 182.511C157.483 176.447 166.746 170.384 176.009 164.32L179.91 161.767C185.229 158.285 184.528 150.449 179.077 147.537C175.96 145.871 172.115 145.204 168.651 144.661C162.932 143.753 157.15 143.297 151.384 142.868C136.602 141.774 121.746 141.499 106.926 141.524C89.3925 141.547 71.8551 142.058 54.3588 143.163C38.6067 144.159 22.8253 145.547 7.26665 148.245C0.68541 149.381 -5.90548 150.636 -12.2944 152.58C-16.869 153.97 -21.6746 155.71 -25.6258 158.47C-26.8045 159.292 -27.892 160.252 -28.9249 161.239C-30.3418 162.59 -31.0593 165.198 -30.9655 167.09C-30.8643 169.125 -29.8052 171.541 -28.197 172.839C-26.5888 174.137 -24.4928 175.078 -22.3467 174.88C-20.0389 174.662 -18.2761 173.707 -16.5974 172.111L-16.6145 172.085Z" fill="#768E8B" fill-opacity="0.3"/>
<path d="M-26.4895 159.62C-31.2946 161.646 -35.1699 164.979 -38.7226 168.747C-42.5783 172.851 -45.9501 177.408 -49.1407 182.034C-58.2126 195.173 -66.0933 209.087 -73.514 223.21C-81.6826 238.755 -89.2822 254.599 -96.4333 270.635C-102.699 284.661 -108.674 298.845 -113.941 313.275C-116.083 319.141 -118.156 325.038 -119.898 331.04C-121.063 335.074 -122.02 339.083 -122.257 343.281C-122.288 343.786 -122.301 344.279 -122.261 344.776C-121.922 349.056 -118.143 352.987 -113.643 352.566C-109.143 352.145 -105.493 348.524 -105.853 343.947C-105.891 343.413 -105.875 342.867 -105.839 342.334L-105.998 344.428C-105.605 339.519 -103.947 334.641 -102.465 329.989C-101.84 328.038 -101.194 326.098 -100.52 324.164L-101.212 326.147C-98.5056 318.331 -95.5112 310.613 -92.399 302.942C-88.6738 293.775 -84.753 284.679 -80.6941 275.642C-76.3472 265.981 -71.8364 256.4 -67.1504 246.915C-62.5701 237.649 -57.8172 228.456 -52.8145 219.398C-48.395 211.406 -43.7915 203.505 -38.789 195.853C-38.2247 194.986 -37.6547 194.128 -37.076 193.264L-38.2655 195.038C-34.5509 189.522 -30.6346 184.048 -26.0282 179.23C-25.0382 178.196 -24.0111 177.2 -22.9353 176.26L-24.604 177.701C-23.1941 176.492 -21.6779 175.35 -19.9971 174.536L-21.985 175.489C-21.8112 175.412 -21.6518 175.333 -21.4723 175.265C-19.3956 174.391 -17.6624 173.182 -16.6348 171.104C-15.7541 169.333 -15.4673 166.807 -16.1643 164.925C-17.6037 161.055 -22.2665 157.826 -26.4952 159.612L-26.4895 159.62Z" fill="#768E8B" fill-opacity="0.3"/>
<path d="M149.739 185.421L143.279 189.65C137.419 193.485 131.551 197.327 125.692 201.162C117.021 206.838 108.349 212.514 99.6776 218.19L-82.3011 337.311C-85.4354 339.362 -88.6068 341.376 -91.7126 343.471C-91.8432 343.557 -91.9825 343.648 -92.1131 343.733L-79.5727 352.29C-77.0046 341.716 -74.4365 331.143 -71.8771 320.575C-71.5064 319.052 -71.1387 317.542 -70.768 316.019C-76.1268 314.9 -81.4855 313.781 -86.8443 312.663C-89.4933 323.587 -92.1279 334.515 -94.7769 345.44C-95.1449 346.987 -95.5273 348.53 -95.8953 350.077C-96.9178 354.291 -93.8062 359.044 -89.5352 359.793C-78.8752 361.658 -68.2094 363.531 -57.5494 365.396C-56.0623 365.654 -54.5696 365.92 -53.0825 366.178C-48.8491 366.927 -44.0966 364.288 -43.3663 359.818C-42.636 355.348 -45.2075 350.887 -49.7264 350.102C-60.3864 348.237 -71.0522 346.364 -81.7122 344.499C-83.1993 344.241 -84.692 343.975 -86.1791 343.717L-79.819 353.433C-77.17 342.508 -74.5354 331.581 -71.8864 320.656C-71.5184 319.109 -71.136 317.565 -70.768 316.019C-69.7515 311.834 -72.8481 307.008 -77.1281 306.303C-81.6415 305.563 -85.762 308.198 -86.8443 312.663C-89.4124 323.236 -91.9805 333.809 -94.5399 344.377C-94.9106 345.901 -95.2783 347.41 -95.649 348.933C-96.4292 352.13 -94.7931 355.599 -92.1556 357.367C-89.5182 359.135 -85.8656 359.282 -83.1144 357.481L101.389 236.708C110.609 230.673 119.82 224.643 129.04 218.608C135.666 214.271 142.291 209.934 148.925 205.591C152.06 203.54 155.225 201.517 158.337 199.431C158.468 199.345 158.607 199.254 158.737 199.169C162.333 196.815 163.712 191.398 161.11 187.803C158.508 184.208 153.593 182.911 149.744 185.43L149.739 185.421Z" fill="#768E8B" fill-opacity="0.3"/>
</svg>
