<svg width="204" height="350" viewBox="0 0 204 350" fill="none" xmlns="http://www.w3.org/2000/svg">
<path d="M166.321 108.853C165.152 106.327 164.144 103.727 163.483 101.013L164.009 103.154C163.497 100.963 163.221 98.7467 163.266 96.4939L163.208 98.6287C163.268 96.7838 163.553 94.9732 164.05 93.1912L163.466 95.2084C164.068 93.1508 164.953 91.2169 166.05 89.3677L164.967 91.1668C166.64 88.4211 168.721 85.9739 171.027 83.7292L169.499 85.2219C170.451 84.3126 171.427 83.4383 172.434 82.5855L170.505 83.6541C173.668 82.057 176.959 80.7003 180.404 79.853L178.263 80.3791C180.536 79.8462 182.839 79.5358 185.168 79.5734L183.033 79.5159C184.808 79.5689 186.547 79.8149 188.256 80.2965L186.239 79.7123C187.932 80.2111 189.531 80.9257 191.038 81.8329L189.238 80.7497C191.049 81.8619 192.684 83.2106 194.182 84.7244L192.69 83.1971C195.404 85.989 197.614 89.2025 199.583 92.5438L198.514 90.6155C199.874 93.4579 201.03 96.3799 201.776 99.4518L201.25 97.3109C201.745 99.4303 202.027 101.577 201.975 103.755L202.033 101.62C201.975 103.04 201.774 104.437 201.393 105.805L201.977 103.787C201.579 105.139 201.02 106.42 200.298 107.631L201.381 105.832C200.594 107.101 199.668 108.246 198.605 109.3L200.133 107.807C198.724 109.175 197.154 110.36 195.445 111.332L197.373 110.263C194.838 111.637 192.105 112.562 189.318 113.264L191.459 112.738C190.967 112.852 190.466 112.97 189.974 113.085C187.313 113.681 185.281 114.656 183.844 117.063C182.528 119.266 182.232 121.819 183.185 124.25L189.552 140.498C191.12 144.499 196.14 146.957 200.192 145.146C204.243 143.335 206.518 138.789 204.84 134.506L198.473 118.259C196.211 121.984 193.949 125.709 191.684 129.425C198.364 127.936 204.915 125.771 209.98 120.958C214.04 117.087 216.876 112.545 217.945 106.974C219.014 101.403 217.903 95.3446 216.033 89.9751C214.264 84.8903 211.513 80.1233 208.126 75.9296C204.957 72.0079 201.347 68.8407 196.943 66.3866C192.539 63.9326 187.335 63.0884 182.291 63.2212C176.835 63.3588 171.283 65.1323 166.37 67.4264C164.346 68.3648 162.515 69.3954 160.856 70.8949C159.304 72.2965 157.798 73.7584 156.375 75.2885C154.175 77.6595 152.392 80.2692 150.775 83.0713C147.796 88.2175 146.575 94.1721 146.891 100.083C147.165 105.173 148.841 110.249 150.967 114.848C152.77 118.735 157.381 121.376 161.607 119.496C165.482 117.777 168.191 113.027 166.255 108.857L166.321 108.853Z" fill="#768E8B" fill-opacity="0.3"/>
<path d="M203.588 147.682C203.751 147.585 203.904 147.491 204.067 147.393L202.139 148.462C203.772 147.554 205.571 146.983 207.387 146.539L205.246 147.066C211.032 145.659 217.109 145.423 223.037 145.38C225.165 145.362 227.298 145.386 229.433 145.444L227.298 145.386C236.266 145.627 245.213 146.356 254.136 147.308C264.327 148.388 274.491 149.769 284.619 151.344C295.102 152.969 305.557 154.806 315.968 156.818C325.823 158.722 335.64 160.787 345.421 163.045C353.692 164.956 361.936 167.001 370.105 169.309C370.998 169.563 371.891 169.816 372.774 170.074L370.757 169.489C376.475 171.16 382.267 172.88 387.697 175.357C388.635 175.783 389.562 176.236 390.453 176.769L388.653 175.686C389.109 175.966 389.56 176.259 389.976 176.61L392.073 162.51L356.808 176.331C352.807 177.899 350.348 182.919 352.16 186.97C353.971 191.022 358.517 193.297 362.799 191.619C373.34 187.488 383.891 183.353 394.431 179.222L398.849 177.491C402.986 175.87 405.119 170.988 403.498 166.851L392.054 137.651C390.486 133.65 385.466 131.191 381.415 133.002C377.363 134.814 375.088 139.36 376.766 143.642L388.21 172.843L392.858 162.203L356.808 176.331C352.807 177.899 350.348 182.919 352.16 186.97C353.971 191.022 358.517 193.297 362.799 191.619C373.108 187.579 383.416 183.539 393.724 179.5L398.065 177.799C403.984 175.479 404.901 167.665 400.161 163.7C397.451 161.431 393.824 159.991 390.544 158.751C385.133 156.692 379.565 155.063 374.01 153.462C359.764 149.366 345.279 146.057 330.767 143.049C313.601 139.483 296.33 136.394 278.978 133.896C263.355 131.647 247.623 129.777 231.842 129.233C225.167 128.999 218.459 128.878 211.808 129.473C207.046 129.898 201.986 130.618 197.553 132.511C196.231 133.074 194.97 133.792 193.757 134.547C192.094 135.578 190.858 137.985 190.563 139.855C190.245 141.869 190.787 144.45 192.096 146.05C193.404 147.649 195.264 148.999 197.405 149.244C199.708 149.504 201.629 148.93 203.599 147.711L203.588 147.682Z" fill="#768E8B" fill-opacity="0.3"/>
<path d="M196.472 133.46C191.354 134.46 186.879 136.929 182.63 139.89C178.016 143.118 173.783 146.889 169.714 150.764C158.145 161.768 147.584 173.775 137.43 186.081C126.253 199.625 115.572 213.579 105.291 227.812C96.2876 240.259 87.5362 252.92 79.4275 265.966C76.1304 271.271 72.8949 276.618 69.9616 282.137C67.9955 285.847 66.238 289.576 65.1468 293.636C65.0139 294.124 64.9004 294.604 64.837 295.098C64.2931 299.357 67.1882 303.978 71.6792 304.487C76.1703 304.996 80.4835 302.199 81.0681 297.645C81.1395 297.114 81.2669 296.583 81.4115 296.068L80.8273 298.086C82.217 293.361 84.8374 288.925 87.2401 284.676C88.2516 282.894 89.2804 281.127 90.3362 279.372L89.253 281.171C93.5017 274.074 98.0122 267.132 102.628 260.26C108.151 252.05 113.85 243.949 119.672 235.934C125.904 227.367 132.28 218.912 138.808 210.587C145.187 202.454 151.721 194.428 158.471 186.586C164.433 179.667 170.556 172.876 177.018 166.409C177.748 165.676 178.482 164.953 179.225 164.225L177.698 165.718C182.462 161.079 187.416 156.523 192.911 152.749C194.091 151.94 195.301 151.175 196.546 150.475L194.618 151.543C196.245 150.648 197.963 149.841 199.775 149.388L197.634 149.914C197.82 149.875 197.992 149.83 198.182 149.8C200.393 149.369 202.337 148.54 203.768 146.717C204.993 145.164 205.79 142.75 205.493 140.766C204.877 136.682 200.973 132.568 196.468 133.45L196.472 133.46Z" fill="#768E8B" fill-opacity="0.3"/>
<path d="M363.691 194.778L356.503 197.596C349.982 200.151 343.452 202.71 336.932 205.265C327.283 209.046 317.633 212.828 307.984 216.61L105.479 295.969C101.992 297.336 98.4751 298.658 95.0064 300.073C94.861 300.13 94.706 300.191 94.5607 300.248L105.085 311.189C109.762 301.365 114.44 291.541 119.108 281.721C119.782 280.305 120.451 278.903 121.126 277.488C116.109 275.296 111.093 273.104 106.076 270.913C101.248 281.064 96.4326 291.221 91.6041 301.373C90.9273 302.812 90.2371 304.244 89.5604 305.683C87.6972 309.598 89.7702 314.888 93.7975 316.495C103.85 320.502 113.907 324.518 123.96 328.525C125.363 329.082 126.769 329.648 128.172 330.205C132.163 331.804 137.355 330.194 138.984 325.967C140.614 321.741 139.01 316.849 134.747 315.155C124.694 311.149 114.638 307.132 104.585 303.126C103.182 302.569 101.775 302.003 100.372 301.446L104.61 312.258C109.438 302.107 114.253 291.949 119.082 281.798C119.759 280.359 120.449 278.926 121.126 277.488C122.977 273.599 120.933 268.242 116.888 266.675C112.622 265.028 108.049 266.764 106.076 270.913C101.399 280.737 96.7213 290.561 92.0535 300.381C91.3789 301.796 90.7101 303.198 90.0355 304.614C88.6176 307.584 89.5093 311.314 91.7291 313.584C93.9489 315.855 97.4942 316.745 100.556 315.546L305.87 235.085C316.13 231.064 326.38 227.048 336.64 223.027C344.012 220.137 351.385 217.248 358.768 214.355C362.255 212.988 365.768 211.656 369.241 210.251C369.386 210.194 369.541 210.133 369.686 210.076C373.688 208.508 376.146 203.488 374.335 199.436C372.524 195.385 367.977 193.11 363.695 194.788L363.691 194.778Z" fill="#768E8B" fill-opacity="0.3"/>
</svg>
