<svg width="380" height="44" viewBox="0 0 380 44" fill="none" xmlns="http://www.w3.org/2000/svg">
<path d="M89.5922 38.619C86.8808 38.619 84.2843 38.2565 81.7968 37.5315C79.3094 36.8065 77.3121 35.864 75.793 34.704L78.456 28.8072C79.8783 29.8403 81.585 30.6862 83.5883 31.3447C85.5916 32.0033 87.6071 32.3356 89.6406 32.3356C91.9647 32.3356 93.6352 31.9972 94.6519 31.3206C95.6687 30.6439 96.1771 29.7739 96.1771 28.7105C96.1771 27.8103 95.82 27.0913 95.1119 26.5596C94.4038 26.028 93.4596 25.593 92.2794 25.2546C91.0992 24.9163 89.8162 24.5961 88.4302 24.2879C87.0442 23.9798 85.6461 23.6113 84.242 23.1762C82.8379 22.7412 81.5487 22.1612 80.3685 21.4362C79.1883 20.7112 78.2442 19.7626 77.536 18.5845C76.8279 17.4064 76.4708 15.9322 76.4708 14.1619C76.4708 12.2286 76.9974 10.4644 78.0444 8.86932C79.0915 7.27429 80.6772 5.99948 82.7894 5.05092C84.9017 4.10236 87.5586 3.62506 90.7543 3.62506C92.8847 3.62506 94.9848 3.88486 97.0487 4.39841C99.1125 4.91196 100.94 5.6551 102.52 6.62178L100.099 12.5669C98.5194 11.6667 96.9276 10.996 95.3298 10.561C93.732 10.126 92.1887 9.90851 90.7058 9.90851C88.3818 9.90851 86.7295 10.2891 85.743 11.0444C84.7564 11.7996 84.2662 12.7119 84.2662 13.7752C84.2662 14.6453 84.6233 15.3461 85.3314 15.8778C86.0395 16.4095 86.9776 16.8445 88.1397 17.1828C89.3017 17.5211 90.5848 17.8353 91.9889 18.1253C93.3931 18.4153 94.7972 18.7778 96.2013 19.2128C97.6055 19.6479 98.8946 20.2218 100.075 20.9287C101.255 21.6356 102.199 22.5721 102.907 23.7321C103.615 24.8921 103.972 26.3603 103.972 28.1305C103.972 30.0337 103.446 31.7737 102.399 33.3506C101.352 34.9275 99.7601 36.2023 97.6297 37.169C95.4993 38.1357 92.8181 38.619 89.5922 38.619Z" fill="#4682B4"/>
<path d="M118.014 38.039L106.877 4.20508H115.012L122.662 27.9855L130.651 4.20508H137.914L145.661 28.1788L153.553 4.20508H161.058L149.97 38.039H141.545L134.089 15.1286L126.39 38.039H118.014Z" fill="#4682B4"/>
<path d="M160.332 38.039L175.438 4.20508H183.185L198.34 38.039H190.109L187.107 30.7889H171.371L168.369 38.039H160.332ZM173.84 24.8438H184.638L179.263 11.9386L173.84 24.8438Z" fill="#4682B4"/>
<path d="M202.359 38.039V4.20508H217.03C220.032 4.20508 222.64 4.69446 224.849 5.67927C227.058 6.66408 228.765 8.07181 229.957 9.90851C231.15 11.7452 231.749 13.9384 231.749 16.482C231.749 19.0256 231.15 21.1704 229.957 23.0071C228.765 24.8438 227.058 26.2515 224.849 27.2363C222.64 28.2211 220.032 28.7105 217.03 28.7105H210.203V38.039H202.359ZM216.594 10.5852H210.203V22.3304H216.594C218.985 22.3304 220.782 21.8169 221.993 20.7837C223.203 19.7506 223.808 18.3187 223.808 16.482C223.808 14.6453 223.203 13.165 221.993 12.1319C220.782 11.0987 218.985 10.5852 216.594 10.5852Z" fill="#4682B4"/>
<path d="M249.415 38.619C246.704 38.619 244.108 38.2565 241.62 37.5315C239.133 36.8065 237.135 35.864 235.616 34.704L238.279 28.8072C239.702 29.8403 241.408 30.6862 243.412 31.3447C245.415 32.0033 247.43 32.3356 249.464 32.3356C251.788 32.3356 253.458 31.9972 254.475 31.3206C255.492 30.6439 256 29.7739 256 28.7105C256 27.8103 255.643 27.0913 254.935 26.5596C254.227 26.028 253.283 25.593 252.103 25.2546C250.923 24.9163 249.639 24.5961 248.253 24.2879C246.867 23.9798 245.469 23.6113 244.065 23.1762C242.661 22.7412 241.372 22.1612 240.192 21.4362C239.012 20.7112 238.067 19.7626 237.359 18.5845C236.651 17.4064 236.294 15.9322 236.294 14.1619C236.294 12.2286 236.821 10.4644 237.868 8.86932C238.915 7.27429 240.5 5.99948 242.613 5.05092C244.725 4.10236 247.382 3.62506 250.578 3.62506C252.708 3.62506 254.808 3.88486 256.872 4.39841C258.936 4.91196 260.764 5.6551 262.343 6.62178L259.922 12.5669C258.343 11.6667 256.751 10.996 255.153 10.561C253.555 10.126 252.012 9.90851 250.529 9.90851C248.205 9.90851 246.553 10.2891 245.566 11.0444C244.58 11.7996 244.089 12.7119 244.089 13.7752C244.089 14.6453 244.447 15.3461 245.155 15.8778C245.863 16.4095 246.801 16.8445 247.963 17.1828C249.125 17.5211 250.408 17.8353 251.812 18.1253C253.216 18.4153 254.62 18.7778 256.025 19.2128C257.429 19.6479 258.718 20.2218 259.898 20.9287C261.078 21.6356 262.022 22.5721 262.731 23.7321C263.439 24.8921 263.796 26.3603 263.796 28.1305C263.796 30.0337 263.269 31.7737 262.222 33.3506C261.175 34.9275 259.583 36.2023 257.453 37.169C255.323 38.1357 252.641 38.619 249.415 38.619Z" fill="#4682B4"/>
<path d="M277.498 38.039H269.654V4.20508H277.498V17.5453H292.895V4.20508H300.739V38.039H292.895V24.1671H277.498V38.039Z" fill="#4682B4"/>
<path d="M325.675 38.619C322.993 38.619 320.536 38.184 318.291 37.314C316.045 36.444 314.084 35.2175 312.408 33.6406C310.731 32.0637 309.43 30.2089 308.51 28.0822C307.59 25.9555 307.13 23.6354 307.13 21.122C307.13 18.6087 307.59 16.2886 308.51 14.1619C309.43 12.0352 310.731 10.1804 312.408 8.60348C314.084 7.02658 316.045 5.8001 318.291 4.93008C320.536 4.06007 322.993 3.62506 325.675 3.62506C328.356 3.62506 330.813 4.06007 333.058 4.93008C335.304 5.8001 337.265 7.0145 338.941 8.57932C340.618 10.1441 341.919 11.9929 342.839 14.1378C343.759 16.2826 344.219 18.6087 344.219 21.122C344.219 23.6354 343.759 25.9615 342.839 28.1063C341.919 30.2512 340.618 32.1 338.941 33.6648C337.265 35.2296 335.304 36.444 333.058 37.314C330.813 38.184 328.356 38.619 325.675 38.619ZM325.675 31.9489C327.678 31.9489 329.475 31.4897 331.073 30.5714C332.671 29.653 333.936 28.3782 334.874 26.753C335.812 25.1277 336.278 23.2487 336.278 21.122C336.278 18.9953 335.812 17.1163 334.874 15.4911C333.936 13.8659 332.671 12.5911 331.073 11.6727C329.475 10.7544 327.678 10.2952 325.675 10.2952C323.671 10.2952 321.874 10.7544 320.276 11.6727C318.678 12.5911 317.413 13.8659 316.475 15.4911C315.537 17.1163 315.071 18.9953 315.071 21.122C315.071 23.2487 315.537 25.1277 316.475 26.753C317.413 28.3782 318.678 29.653 320.276 30.5714C321.874 31.4897 323.671 31.9489 325.675 31.9489Z" fill="#4682B4"/>
<path d="M350.61 38.039V4.20508H365.281C368.283 4.20508 370.891 4.69446 373.1 5.67927C375.309 6.66408 377.016 8.07181 378.208 9.90851C379.401 11.7452 380 13.9384 380 16.482C380 19.0256 379.401 21.1704 378.208 23.0071C377.016 24.8438 375.309 26.2515 373.1 27.2363C370.891 28.2211 368.283 28.7105 365.281 28.7105H358.454V38.039H350.61ZM364.845 10.5852H358.454V22.3304H364.845C367.236 22.3304 369.033 21.8169 370.244 20.7837C371.454 19.7506 372.059 18.3187 372.059 16.482C372.059 14.6453 371.454 13.165 370.244 12.1319C369.033 11.0987 367.236 10.5852 364.845 10.5852Z" fill="#4682B4"/>
<path d="M31.7563 7.27431C31.7563 7.10514 31.7684 6.93597 31.7745 6.77284C31.7805 6.42242 31.7745 6.67013 31.7684 6.75471C31.7805 6.67013 31.7926 6.59159 31.8108 6.507C31.8471 6.34387 31.8834 6.18679 31.9258 6.02366C31.956 5.92095 31.9924 5.8122 32.0226 5.70949C32.0347 5.67928 32.1558 5.3651 32.0771 5.54636C32.0166 5.69136 32.1981 5.31677 32.2344 5.25031C32.3252 5.08718 32.4281 4.9301 32.531 4.77301C32.3676 5.02072 32.5734 4.72468 32.6521 4.64009C32.7973 4.48301 32.9547 4.33196 33.1181 4.193C32.8881 4.38634 33.1907 4.15071 33.2815 4.09633C33.3541 4.05404 33.4267 4.01175 33.4933 3.96945C33.5357 3.94529 33.8444 3.79424 33.6567 3.87883C33.4812 3.95737 33.7415 3.84862 33.7536 3.84258C33.8383 3.81841 33.917 3.7882 34.0017 3.76403C34.0864 3.73987 34.1712 3.7157 34.2559 3.69757C34.2983 3.68549 34.7401 3.61299 34.5525 3.63716C34.4617 3.64924 34.8793 3.62507 34.9822 3.62507C35.2061 3.62507 35.4361 3.62507 35.66 3.65528C35.3877 3.62507 35.8235 3.69757 35.9021 3.7157C36.005 3.73987 36.5679 3.92716 36.2834 3.81237C36.5861 3.9332 36.8766 4.10842 37.1368 4.30175C36.8705 4.10237 37.2397 4.4105 37.3184 4.48905C37.3971 4.56759 37.7057 4.92406 37.506 4.66426C37.7178 4.94218 37.8873 5.24427 38.0447 5.5524C38.1354 5.73969 38.0386 5.51615 38.0265 5.49198C38.0689 5.59469 38.1052 5.6974 38.1415 5.80011C38.202 5.98137 38.2565 6.16866 38.2989 6.35596C38.3412 6.54325 38.3836 6.73659 38.4078 6.92388C38.3654 6.60971 38.4078 6.99638 38.4078 7.11118C38.4259 7.62473 38.3896 7.71536 38.2686 8.1987C38.2262 8.36787 38.1718 8.531 38.1173 8.69412C38.2262 8.36787 38.0628 8.80288 38.0083 8.8935C37.972 8.95392 37.7299 9.2983 37.8752 9.11705C38.0204 8.93579 37.6573 9.2983 37.6149 9.36476C37.5121 9.50372 37.6997 9.29226 37.736 9.27413C37.6634 9.31038 37.5968 9.3708 37.5242 9.40705C37.4515 9.4433 37.3728 9.4856 37.3063 9.52185C37.1065 9.64268 37.2821 9.50372 37.391 9.4856C37.2518 9.50976 37.1065 9.58226 36.9613 9.61851C36.8887 9.63664 36.3621 9.73935 36.6224 9.69706C36.8705 9.66081 36.6042 9.69706 36.5316 9.69706C36.3924 9.69706 36.2532 9.69706 36.12 9.69706H35.3756C34.3951 9.69706 33.5538 10.5248 33.5599 11.5096C33.5599 12.7179 33.566 13.9263 33.572 15.1347C33.5781 17.4668 37.2094 17.4728 37.2034 15.1347C37.2034 13.9263 37.1973 12.7179 37.1913 11.5096L35.3756 13.3221C36.8826 13.3221 38.3957 13.2315 39.6727 12.3252C41.67 10.9054 42.2752 8.27724 41.9121 5.96324C41.5853 3.87279 40.3264 1.84275 38.426 0.833773C36.3197 -0.283955 33.5841 -0.289997 31.5203 0.936484C29.2991 2.25359 28.1552 4.76093 28.131 7.28639C28.1068 9.61851 31.7382 9.62456 31.7624 7.28639L31.7563 7.27431Z" fill="#2B2D42"/>
<path d="M34.6012 17.201C36.4411 17.5574 38.2326 18.1556 39.9877 18.802C42.3603 19.6781 44.2667 20.5179 46.6211 21.6538C51.59 24.0463 56.4077 26.8255 60.8198 30.1304C61.6853 30.7768 62.9018 31.7858 63.858 32.6619C64.8143 33.5379 65.704 34.4502 66.5211 35.4411C67.1444 36.1963 68.4396 36.0876 69.0872 35.4411C69.8377 34.6919 69.7106 33.6346 69.0872 32.8794C65.7464 28.8374 61.2071 25.738 56.7647 23.0313C52.0258 20.1494 47.0205 17.6481 41.8458 15.6482C39.8062 14.8568 37.7181 14.1197 35.5635 13.7088C34.6012 13.5215 33.6026 13.9807 33.3302 14.9776C33.0881 15.8657 33.6328 17.0197 34.6012 17.207V17.201Z" fill="#2B2D42"/>
<path d="M34.0382 13.7088C29.5958 14.5607 25.2926 16.5364 21.2436 18.4818C16.1597 20.9227 11.2029 23.7623 6.71206 27.182C4.47876 28.8858 2.31203 30.7104 0.5145 32.8794C-0.108887 33.6346 -0.223881 34.704 0.5145 35.4411C1.15604 36.0815 2.45729 36.2024 3.08068 35.4411C6.33076 31.5019 10.4282 28.7347 14.7616 26.1005C17.1341 24.6626 19.5672 23.3334 22.0546 22.1009C24.4029 20.9408 26.5394 19.9802 28.809 19.1041C30.8184 18.3308 32.8822 17.6058 35.0066 17.1949C35.9689 17.0076 36.5197 15.8537 36.2776 14.9655C35.9992 13.9565 35.0126 13.5155 34.0443 13.6967L34.0382 13.7088Z" fill="#2B2D42"/>
<path d="M69.6437 34.5288V29.0791H67.126C67.132 30.7345 67.1441 32.396 67.1502 34.0515C67.1502 34.2931 67.1502 34.5288 67.1502 34.7704L68.409 33.5138H62.9196C62.2599 33.5138 61.6305 34.0938 61.6607 34.7704C61.691 35.4471 62.2115 36.0271 62.9196 36.0271H68.409C69.0869 36.0271 69.674 35.4532 69.6679 34.7704C69.6619 33.115 69.6498 31.4535 69.6437 29.7981C69.6437 29.5564 69.6437 29.3208 69.6437 29.0791C69.6437 28.4205 69.0687 27.7922 68.3848 27.8224C67.7009 27.8526 67.126 28.3722 67.126 29.0791V34.5288C67.126 35.1873 67.707 35.8157 68.3848 35.7855C69.0627 35.7552 69.6437 35.2357 69.6437 34.5288Z" fill="#2B2D42"/>
<path d="M59.8994 36.0029H9.6653C7.5712 36.0029 7.5712 39.2474 9.6653 39.2474H26.7389C35.7386 39.2474 44.7324 39.2474 53.7321 39.2474H59.8994C61.9935 39.2474 61.9935 36.0029 59.8994 36.0029Z" fill="#2B2D42"/>
<path d="M5.93732 39.1447C7.31119 40.341 8.67901 41.5312 10.0529 42.7275L11.8323 40.9512C10.3918 39.7126 8.95742 38.4741 7.51697 37.2355V39.0118C8.72138 37.6342 9.91973 36.2567 11.1241 34.8852C11.5599 34.3898 11.6507 33.5863 11.1241 33.109C10.6521 32.6739 9.80474 32.5773 9.34477 33.109C8.14036 34.4865 6.942 35.864 5.73759 37.2355C5.31393 37.7188 5.19289 38.5466 5.73759 39.0118C7.17804 40.2503 8.61244 41.4889 10.0529 42.7275C10.5492 43.1564 11.3541 43.2531 11.8323 42.7275C12.268 42.2562 12.3649 41.4104 11.8323 40.9512C10.4584 39.7549 9.09057 38.5647 7.7167 37.3684C7.22041 36.9334 6.41545 36.8428 5.93732 37.3684C5.50155 37.8397 5.40472 38.6855 5.93732 39.1447Z" fill="#2B2D42"/>
</svg>
