<svg width="96" height="96" viewBox="0 0 96 96" fill="none" xmlns="http://www.w3.org/2000/svg">
<path d="M69.8748 42.3259C69.4242 41.1858 68.1347 40.6275 66.9942 41.0777C65.8541 41.5285 65.2954 42.8182 65.7461 43.9583C66.8742 46.8113 67.4459 49.8267 67.4459 52.9208C67.4459 66.3617 56.5111 77.2969 43.0699 77.2969C29.6278 77.2969 18.6915 66.3617 18.6915 52.9208C18.6915 39.4799 29.6278 28.5447 43.0699 28.5447C46.1749 28.5447 49.1953 29.1201 52.0474 30.2549C53.1862 30.7087 54.4772 30.152 54.9305 29.0132C55.3839 27.874 54.8279 26.5832 53.6888 26.13C50.3122 24.7862 46.7394 24.105 43.0701 24.105C27.18 24.105 14.252 37.0315 14.252 52.9206C14.252 68.8096 27.1794 81.7362 43.0699 81.7362C58.9587 81.7362 71.8855 68.8097 71.8855 52.9207C71.8854 49.2654 71.2088 45.7009 69.8748 42.3259Z" fill="#003263"/>
<path d="M83.5603 41.312C83.2231 40.1333 81.995 39.4521 80.8156 39.7886C79.6369 40.126 78.9549 41.3549 79.2921 42.5334C80.2543 45.8967 80.7423 49.3917 80.7423 52.9205C80.7423 73.6944 63.8425 90.5957 43.0698 90.5957C22.2958 90.5957 5.39478 73.6946 5.39478 52.9205C5.39478 32.1462 22.2956 15.2455 43.0698 15.2455C46.6066 15.2455 50.1074 15.7356 53.4744 16.7024C54.6529 17.0405 55.8823 16.3599 56.2205 15.1814C56.5588 14.0029 55.8779 12.7734 54.6994 12.4353C50.9342 11.354 47.0212 10.8057 43.0698 10.8057C19.8477 10.8059 0.955078 29.6984 0.955078 52.9207C0.955078 76.1428 19.8477 95.0355 43.0698 95.0355C66.2905 95.0355 85.182 76.1429 85.182 52.9207C85.1819 48.9783 84.6363 45.0726 83.5603 41.312Z" fill="#003263"/>
<path d="M58.5257 51.5652C58.4169 50.3441 57.338 49.4473 56.1174 49.5515C54.8962 49.6604 53.9945 50.7388 54.1036 51.9599C54.1317 52.276 54.1461 52.5993 54.1461 52.9206C54.1461 59.0286 49.177 63.9974 43.0694 63.9974C36.9602 63.9974 31.99 59.0283 31.99 52.9206C31.9903 46.8112 36.9604 41.8412 43.0696 41.8412C43.4109 41.8412 43.7449 41.8561 44.0631 41.8853C45.285 41.9974 46.3648 41.0995 46.4775 39.8786C46.59 38.6578 45.6915 37.5771 44.4708 37.4642C44.018 37.4225 43.5466 37.4014 43.0699 37.4014C34.5127 37.4014 27.5508 44.3629 27.5508 52.9204C27.5508 61.4763 34.5127 68.4367 43.0699 68.4367C51.6256 68.4367 58.5863 61.4763 58.5863 52.9204C58.5859 52.4681 58.5657 52.0118 58.5257 51.5652Z" fill="#EE3D40"/>
<path d="M94.7045 15.8889C94.0148 14.2236 92.4042 13.1474 90.6017 13.1474H82.8615V5.40742C82.8615 3.60462 81.7854 1.99422 80.1201 1.30462C78.4555 0.615118 76.5566 0.993118 75.2824 2.26732L62.3494 15.2004C61.092 16.4576 60.3997 18.1295 60.3997 19.9083V32.4698L42.3591 50.5104C41.4923 51.3772 41.4923 52.7829 42.3591 53.6499C42.7924 54.0833 43.3607 54.3001 43.9287 54.3001C44.4967 54.3001 45.0649 54.0833 45.4983 53.6499L63.5391 35.6091H76.1006C77.8793 35.6091 79.5514 34.9167 80.8084 33.6597L93.7415 20.7263C95.0161 19.4518 95.3939 17.5532 94.7045 15.8889ZM64.8394 19.9081C64.8396 19.3154 65.0702 18.7582 65.4888 18.3398L78.4218 5.40872V14.4479L64.8393 28.0305L64.8394 19.9081ZM77.6692 30.5202C77.2568 30.9326 76.6849 31.1695 76.1007 31.1695H67.9788L81.561 17.5873L90.6009 17.5884L77.6692 30.5202Z" fill="#EE3D40"/>
</svg>
