<svg width="63" height="58" viewBox="0 0 63 58" fill="none" xmlns="http://www.w3.org/2000/svg">
<path d="M19.3333 0L9.66667 18.0343L21.4815 25.366L29 11.3444L31.6207 16.3344L28.4952 18.2829L40.5141 18.1384L44.5096 10.8761L46.6202 7.00789L43.4678 8.96222L38.6667 0H19.3333ZM48.3333 18.0343L36.4165 25.4411L43.6665 39.1736L38.7365 39.2083V35.4499L36.787 39.2083L32.8291 46.725V46.7596L36.685 54.0971L38.7365 58V54.0971H48.3333L58 36.0628L48.3333 18.0343ZM1.64333 25.1173L4.83333 27.1006L0 36.0628L9.66667 54.0971H29V39.2834L13.963 39.3875L16.6159 34.438L19.7683 36.3924L13.6622 25.2619L1.64333 25.1173Z" fill="#2B2D42"/>
</svg>
