<svg width="65" height="100" viewBox="0 0 65 100" fill="none" xmlns="http://www.w3.org/2000/svg">
<path d="M64.2784 31.4486C64.0607 38.1763 61.7164 44.6619 57.5822 49.9739C53.4134 55.6366 51.0337 58.9803 50.4431 60.0052C47.5365 65.6303 46.1531 71.9183 46.4306 78.2438V78.4783H17.7698V78.322C17.9788 71.9751 16.5141 65.685 13.5228 60.0833C11.3871 56.6223 9.0738 53.274 6.5921 50.052C2.45794 44.74 0.113665 38.2545 -0.10407 31.5268C-0.15073 27.3709 0.668432 23.2509 2.30128 19.429C3.93412 15.607 6.34487 12.1669 9.38003 9.32772C15.4262 3.39062 23.5613 0.064209 32.035 0.064209C40.5088 0.064209 48.644 3.39062 54.6901 9.32772C57.7344 12.1488 60.1588 15.5722 61.8095 19.3803C63.4601 23.1884 64.3009 27.2982 64.2784 31.4486ZM53.3352 49.531L54.664 47.7331C59.0212 42.5303 61.1598 35.8237 60.6188 29.0589C60.0778 22.2942 56.9006 16.0127 51.7719 11.5685C46.5326 6.41287 39.4767 3.52341 32.1262 3.52341C24.7757 3.52341 17.7198 6.41287 12.4806 11.5685C7.35187 16.0127 4.17465 22.2942 3.63366 29.0589C3.09267 35.8237 5.23123 42.5303 9.58844 47.7331L13.8355 53.5435C14.9787 54.9889 15.9493 56.5629 16.7276 58.2334C19.7682 63.2854 21.3885 69.0645 21.4175 74.9609H24.9871V49.9739L17.848 35.6956H21.652L28.5827 49.9739V74.9609H35.7219V49.9739L42.6525 35.6956H46.4566L39.3175 49.9739V74.9609H42.8871C42.9563 69.0702 44.5737 63.3014 47.577 58.2334C49.2255 55.467 51.0171 52.7883 52.9444 50.2084L53.1789 49.9739C53.1441 49.6786 53.1962 49.531 53.3352 49.531ZM21.4957 85.6435V82.1261H42.9131V85.6435H21.4957ZM21.4957 92.7826V89.2652H42.9131V92.8348H21.4957V92.7826ZM25.0653 99.9218V96.4043H39.3436V99.9739H25.0653V99.9218Z" fill="#003263"/>
</svg>
